<svg width="19" height="18" viewBox="0 0 19 18" fill="none" xmlns="http://www.w3.org/2000/svg">
<g clip-path="url(#clip0_408_441)">
<path d="M8.93904 5.62399H9.07052C9.09404 5.67343 9.10252 5.72899 9.15452 5.75703C9.41136 5.76415 9.33052 5.74463 9.62484 6.03999H10.2208C10.3097 6.08035 10.3352 6.20499 10.4522 6.18451C10.5356 6.29907 10.7402 6.29935 10.7417 6.49551C10.742 6.52351 10.7933 6.55087 10.821 6.57855C10.7756 6.70483 10.6694 6.78203 10.5807 6.87699C10.5513 6.92411 10.456 6.84159 10.4532 6.92935C10.4505 7.01435 10.3663 6.96807 10.3367 7.01815C10.3161 7.05307 10.2484 7.06019 10.2007 7.08011L10.1478 7.03427C10.1254 7.12151 10.0422 7.13491 9.97936 7.17027C9.934 7.17675 9.92735 7.10663 9.85735 7.13555L9.74303 7.27795C9.69619 7.23987 9.66799 7.19603 9.62927 7.21959C9.52851 7.28099 9.4324 7.35007 9.33524 7.41731C9.23123 7.48743 9.10632 7.51975 8.98135 7.50887C8.89035 7.49711 8.82356 7.60587 8.71868 7.51975V7.70539C8.66696 7.75943 8.58068 7.70227 8.54192 7.80367C8.52088 7.66107 8.34067 7.73687 8.32307 7.60143C8.24895 7.63651 8.17276 7.68679 8.11352 7.57583C8.09932 7.55151 8.13323 7.54867 8.14151 7.52807C8.13943 7.48235 8.10003 7.50611 8.07651 7.49719C8.02851 7.44919 8.04948 7.35463 8.15004 7.16883C7.92956 7.02955 7.83992 6.78483 7.69724 6.59191C7.70712 6.43763 7.79971 6.34143 7.93543 6.28207C7.97753 6.26973 8.02047 6.2605 8.06391 6.25447C8.17707 6.22415 8.28856 6.18015 8.4116 6.18247C8.63036 6.18647 8.69223 6.13099 8.76099 5.92035C8.79495 5.81631 8.80416 5.69647 8.93904 5.62399Z" fill="#212121"/>
<path d="M15.1892 14.3764C15.0572 14.4582 14.9274 14.482 14.847 14.5878C14.818 14.6225 14.7771 14.6453 14.7323 14.6516C14.5803 14.6847 14.4795 14.8281 14.3159 14.8391C14.2866 14.841 14.2604 14.8907 14.2328 14.9184C14.0644 14.9026 13.9073 15.002 13.7368 14.967C13.6928 14.9579 13.6437 14.986 13.6032 14.9496C13.4941 14.8514 13.3583 14.8183 13.2192 14.8022C13.0927 14.7875 13.0237 14.6965 12.9432 14.6182C12.9282 14.5685 12.9723 14.4816 12.8545 14.4948V14.2784C12.98 14.1187 13.159 14.0526 13.3696 14.0224C13.5712 13.9893 13.7694 13.9378 13.9616 13.8684C14.0067 13.8525 14.0482 13.8277 14.0835 13.7954C14.1189 13.7632 14.1474 13.7242 14.1675 13.6808C14.2977 13.4221 14.4051 13.1525 14.4886 12.8752C14.5541 12.6672 14.5499 12.6657 14.7274 12.5712C14.8554 12.6032 14.8038 12.7188 14.8214 12.7901L14.961 12.6505C15.0254 12.6985 15.0577 12.7382 15.0642 12.798C15.1362 12.8009 15.2116 12.8409 15.2698 12.7482C15.3098 12.8373 15.2469 12.9453 15.3797 12.9922L15.4908 12.8416C15.5494 12.9088 15.4978 12.9787 15.537 13.0313C15.5816 13.0593 15.6074 13.029 15.6343 12.9993C15.6451 13.0063 15.6605 13.0107 15.6663 13.0206C15.8192 13.2867 15.7801 13.5463 15.6326 13.7984C15.5574 13.9227 15.4624 14.0338 15.3512 14.1273C15.2745 14.1931 15.2183 14.2796 15.1892 14.3764Z" fill="#212121"/>
<path d="M12.274 10.9204C12.2137 10.9264 12.1562 10.9535 12.1263 10.8799C12.054 10.933 12.0008 11.0395 11.8955 10.9412C11.8904 10.9354 11.884 10.9309 11.8768 10.9281C11.8696 10.9252 11.8618 10.9241 11.8541 10.9248C11.8464 10.9255 11.839 10.9281 11.8325 10.9322C11.8259 10.9363 11.8205 10.9419 11.8165 10.9486C11.7818 10.9961 11.7289 10.9609 11.6861 10.9827C11.6219 11.1867 11.4588 11.3134 11.3007 11.4415C11.281 11.4575 11.2506 11.4864 11.2279 11.4866C11.0191 11.4885 10.8099 11.5063 10.6016 11.4781C10.5403 11.3996 10.4051 11.5 10.3616 11.3789C10.2782 11.3745 10.1971 11.3495 10.1256 11.3061C10.0473 11.2638 9.97825 11.205 9.90161 11.1677C9.78357 11.1102 9.71998 11.0157 9.6613 10.9117C9.6223 10.8427 9.59329 10.7681 9.55865 10.694C9.59865 10.6174 9.62937 10.534 9.70349 10.4745C9.74356 10.4419 9.79034 10.4185 9.84049 10.4061C9.98059 10.3626 10.1107 10.2918 10.2233 10.1978C10.5043 9.97995 10.7719 9.74683 11.0401 9.51431C11.0926 9.46879 11.1569 9.45551 11.2126 9.42291C11.2569 9.45583 11.31 9.47927 11.2942 9.54691C11.3689 9.59299 11.452 9.53979 11.5222 9.58023C11.5281 9.64707 11.4496 9.58135 11.4482 9.64703C11.5064 9.68171 11.5825 9.64819 11.6522 9.66331C11.6838 9.71347 11.7479 9.73531 11.7682 9.80155C11.7848 9.85591 11.8577 9.92403 11.8427 9.95115C11.8033 10.0224 11.8732 10.0643 11.8615 10.1232C11.8499 10.182 11.8727 10.2592 11.8427 10.3017C11.8081 10.3508 11.8854 10.408 11.8067 10.4422C11.8925 10.4965 11.9693 10.5796 12.0553 10.5905C12.1494 10.6025 12.1517 10.7582 12.2743 10.6838L12.274 10.9204Z" fill="#212121"/>
<path d="M6.16268 12.861C6.0496 12.9162 6.00268 13.0589 5.8614 13.0978C5.81432 12.9488 6.05572 12.9234 5.981 12.7824C5.91607 12.7378 5.84677 12.6998 5.77416 12.6692C5.74649 12.6612 5.72125 12.6464 5.70068 12.6262C5.68011 12.6061 5.66486 12.5811 5.65628 12.5536C5.61988 12.4593 5.55572 12.3784 5.47228 12.3214C5.46926 12.2678 5.46965 12.2142 5.47344 12.1607C5.48872 12.0421 5.51808 11.932 5.61192 11.8422C5.84528 11.6187 6.10464 11.4431 6.41708 11.3485C6.49251 11.3183 6.5651 11.2815 6.634 11.2384C6.6448 11.1364 6.7076 11.0392 6.70072 10.9197C6.70123 10.8834 6.71417 10.8484 6.73739 10.8206C6.7606 10.7927 6.79267 10.7737 6.82824 10.7666C6.87428 10.7576 6.91532 10.7231 6.97508 10.6914V10.9974L7.14976 10.825C7.42976 10.9915 7.62704 11.1993 7.6842 11.52L7.58856 11.5538V11.7489C7.46516 11.8421 7.45372 11.987 7.40524 12.1049C7.35092 12.25 7.26992 12.3836 7.16644 12.4989C7.07276 12.5983 6.95724 12.6785 6.89868 12.8099C6.88229 12.8461 6.85315 12.8751 6.8168 12.8912C6.6888 12.9363 6.605 13.0305 6.52588 13.1454C6.51128 13.1054 6.50144 13.0782 6.48216 13.0254C6.4508 13.1263 6.43216 13.2012 6.33292 13.2504C6.21176 13.3104 6.16892 13.2402 6.10584 13.1824C6.07588 13.2148 6.0512 13.2471 6.0052 13.2224C5.99988 13.2094 5.98636 13.1929 5.99016 13.1832C6.01826 13.0975 6.06936 13.0212 6.13788 12.9627C6.169 12.9378 6.1944 12.9089 6.16268 12.861Z" fill="#212121"/>
<path d="M10.1023 2.89292C10.0727 2.88092 10.0698 2.84744 10.0306 2.86492C10.0172 2.97652 10.056 3.10396 9.95465 3.2198C9.91465 3.23448 9.82533 3.21284 9.80061 3.29224C9.78061 3.35596 9.75977 3.40424 9.69741 3.4136C9.62541 3.4124 9.67985 3.31844 9.61381 3.31916C9.54921 3.31956 9.53173 3.38344 9.48841 3.4124C9.46677 3.3988 9.45457 3.37268 9.46589 3.35484C9.49865 3.3032 9.53465 3.25512 9.49981 3.19056C9.44913 3.14688 9.42485 3.21116 9.38737 3.21856C9.37725 3.21201 9.37004 3.20181 9.36724 3.19009C9.36444 3.17836 9.36626 3.16601 9.37233 3.1556C9.46433 2.97996 9.50033 2.78616 9.56885 2.6036C9.4352 2.52541 9.29728 2.45477 9.15573 2.392C9.00501 2.31732 8.90277 2.204 8.77361 2.092H8.57137C8.57041 1.97344 8.70621 1.94224 8.67841 1.81048C8.60889 1.76248 8.59101 1.93848 8.50453 1.91048C8.48261 1.89724 8.47509 1.87744 8.48009 1.84008C8.60837 1.75752 8.77281 1.74928 8.91521 1.68008C9.06677 1.60632 9.24165 1.59748 9.40605 1.56056C9.57697 1.52212 9.74321 1.55748 9.91781 1.52796C10.0412 1.43312 10.0199 1.26796 10.0732 1.1342C10.1288 0.994557 10.1902 0.862837 10.3063 0.760997C10.3499 0.722797 10.3906 0.739757 10.4398 0.743917C10.4474 0.814477 10.3228 0.824357 10.3676 0.917277L10.547 0.830437C10.5962 0.833357 10.592 0.866437 10.5915 0.897357C10.8186 0.949077 10.8579 0.973957 10.939 1.20968C10.9593 1.26894 10.9692 1.3313 10.968 1.39396C10.9649 1.4798 10.9672 1.56596 10.9672 1.65052C10.9845 1.68524 11.0229 1.66804 11.054 1.68988V2.04188C10.8763 2.10292 10.8356 2.29208 10.7334 2.43064C10.6886 2.49144 10.6557 2.5614 10.5275 2.5774C10.5891 2.50916 10.6441 2.46996 10.6666 2.417C10.6883 2.36576 10.7478 2.32592 10.7306 2.26332C10.717 2.23812 10.7066 2.23688 10.6946 2.25356C10.6271 2.34956 10.576 2.46156 10.4506 2.50008C10.4558 2.5874 10.4256 2.57344 10.3823 2.52312C10.333 2.55688 10.3641 2.60688 10.3575 2.64868C10.3526 2.67988 10.3558 2.70756 10.3098 2.7102C10.1976 2.7166 10.1736 2.828 10.1023 2.89292Z" fill="#212121"/>
<path d="M5.75309 6.18447C5.76337 6.28047 5.74781 6.34303 5.66689 6.37307C5.60405 6.37231 5.58657 6.30847 5.54317 6.27943C5.48801 6.33711 5.43309 6.34639 5.36577 6.29163C5.31056 6.25181 5.27178 6.19321 5.25669 6.12683C5.24469 6.01283 5.17361 5.94975 5.10097 5.88555C4.96749 5.7652 4.86464 5.61475 4.80097 5.44667C4.78317 5.41114 4.77457 5.3717 4.77596 5.33197C4.77736 5.29225 4.78871 5.25351 4.80897 5.21931C4.83962 5.15171 4.88676 5.09289 4.94606 5.04825C5.00536 5.00361 5.07493 4.97459 5.14837 4.96383C5.25037 4.94599 5.34577 4.88975 5.45021 4.92007C5.47389 4.87883 5.51021 4.86491 5.52105 4.82055C5.58046 4.589 5.66931 4.36602 5.78545 4.15707C5.86369 4.01259 5.93121 4.00359 6.07665 4.08419C6.16753 4.13455 6.25813 4.17519 6.33777 4.24919C6.43615 4.33018 6.511 4.43607 6.55453 4.55583C6.61621 4.69932 6.64802 4.85386 6.64801 5.01003C6.64729 5.08275 6.61581 5.16523 6.69149 5.22687C6.70297 5.23623 6.70053 5.27487 6.69193 5.29487C6.63277 5.42963 6.66045 5.58483 6.57797 5.71695C6.48577 5.86463 6.39733 6.01519 6.25769 6.12007C6.2071 6.16427 6.14186 6.18802 6.07469 6.18667C5.97473 6.17823 5.87337 6.18447 5.75309 6.18447Z" fill="#212121"/>
<path d="M3.2649 8.82673C3.2649 8.88273 3.24818 8.93805 3.26774 8.95797C3.36298 9.05517 3.2391 9.13481 3.25574 9.22289C3.14582 9.32689 3.11294 9.47957 3.02206 9.59445C2.97118 9.65877 2.91806 9.72245 2.8113 9.71201C2.7778 9.71246 2.74478 9.72011 2.71449 9.73443C2.6842 9.74876 2.65735 9.76943 2.63574 9.79505C2.5881 9.76005 2.53846 9.72901 2.47638 9.76705C2.47014 9.80529 2.5327 9.81673 2.50766 9.87309C2.4229 9.90081 2.32826 9.93113 2.2341 9.96285C2.1381 9.99513 2.0133 10.0028 1.95454 10.0688C1.88598 10.1458 1.79906 10.1958 1.72494 10.2787C1.66328 10.2406 1.59343 10.2178 1.52118 10.2121C1.5563 10.1508 1.63966 10.1345 1.61146 10.0349L1.49974 10.1251C1.48951 10.1193 1.48195 10.1097 1.47864 10.0984C1.47534 10.0871 1.47655 10.0749 1.48202 10.0645C1.50406 10.0444 1.5191 10.0178 1.52496 9.98857C1.53083 9.95934 1.5272 9.929 1.51462 9.90197C1.38126 9.89877 1.24606 9.84577 1.11062 9.78117C1.07062 9.70977 1.15438 9.65077 1.15546 9.58937C1.09858 9.54537 1.07106 9.57237 1.04294 9.60441C0.964545 9.57741 0.936825 9.50677 0.970345 9.44873C1.01642 9.36873 1.05338 9.28117 1.15506 9.23361C1.4499 9.09561 1.73106 8.92937 2.02706 8.80297C2.15718 8.58189 2.13318 8.29305 2.3479 8.11121H2.48722C2.50978 8.17957 2.55883 8.19085 2.6289 8.21121C2.7521 8.24721 2.88686 8.30637 2.9333 8.44521C2.96502 8.54005 3.04302 8.59941 3.08202 8.68861C3.09704 8.7261 3.12201 8.75878 3.15424 8.78312C3.18647 8.80746 3.22473 8.82254 3.2649 8.82673Z" fill="#212121"/>
<path d="M9.30199 16.327C9.26979 16.3032 9.26063 16.2762 9.25223 16.278L9.03603 16.5046C9.02947 16.547 9.12635 16.4886 9.12995 16.5446C8.98723 16.6276 8.79471 16.6582 8.77615 16.8855L8.84107 16.9504C8.88107 16.8964 8.92075 16.8422 8.96143 16.7869C9.01067 16.8397 8.99559 16.8689 8.96431 16.9C8.8944 16.9792 8.7964 17.028 8.69107 17.0362C8.61147 17.0405 8.54063 17.1068 8.45059 17.0736C8.43859 17.1075 8.42927 17.1347 8.41959 17.1624C8.38955 17.1807 8.38759 17.143 8.35431 17.133C8.34819 17.2103 8.26495 17.213 8.22419 17.2635C8.14879 17.2326 8.09123 17.144 8.01219 17.1568C7.97467 17.1629 7.91771 17.0808 7.89219 17.1808L7.78227 17.0396H7.58999C7.47483 16.9855 7.44171 16.884 7.39699 16.7916C7.41159 16.7672 7.42539 16.7442 7.43875 16.722L7.34927 16.6326C7.35279 16.566 7.39835 16.5147 7.43287 16.4606C7.46739 16.4064 7.52235 16.4143 7.57523 16.4357C7.57807 16.4764 7.50947 16.4997 7.55351 16.5566C7.65863 16.4859 7.78711 16.468 7.90003 16.4132C7.97939 16.2028 7.97307 15.963 8.14443 15.7836C8.16821 15.7545 8.18533 15.7206 8.19459 15.6842C8.20386 15.6478 8.20505 15.6098 8.19807 15.5728C8.18943 15.5291 8.23007 15.5303 8.26543 15.5305C8.32031 15.5952 8.27063 15.6773 8.29587 15.7474C8.45019 15.681 8.50047 15.5883 8.49587 15.4266C8.49439 15.3764 8.54015 15.3251 8.51707 15.259C8.47675 15.251 8.48475 15.2832 8.47707 15.307C8.46663 15.3268 8.45313 15.345 8.43707 15.3606C8.42882 15.3736 8.41621 15.3831 8.40153 15.3875C8.38685 15.3919 8.37107 15.3909 8.35707 15.3846C8.36631 15.1484 8.43419 15.0499 8.64507 14.968C8.69707 15.0184 8.64183 15.089 8.68011 15.146C8.72687 15.1388 8.74307 15.0912 8.78443 15.0624C8.81091 15.1113 8.82303 15.1714 8.87875 15.2011C8.92475 15.2185 8.94475 15.1768 8.98219 15.1484C9.14491 15.2159 9.27419 15.3084 9.27983 15.5148C9.28179 15.5862 9.36455 15.6628 9.31939 15.7268C9.26339 15.8058 9.34707 15.857 9.32707 15.9268C9.29907 16.0237 9.39507 16.1066 9.37483 16.2122C9.3622 16.2567 9.3369 16.2966 9.30199 16.327Z" fill="#212121"/>
<path d="M14.3783 4.91644H14.5136C14.5662 4.96592 14.5145 5.03584 14.5468 5.09244C14.6279 5.1362 14.6458 5.04844 14.6937 5.01832C14.7047 5.02279 14.7151 5.0284 14.7249 5.03504C14.7782 5.07932 14.8089 5.14044 14.8681 5.18596C15.0605 5.33428 15.0975 5.56108 14.9841 5.80512C14.9321 5.91712 14.883 6.04164 14.7971 6.12296C14.7263 6.18992 14.7435 6.2772 14.6888 6.34088C14.6354 6.40292 14.5678 6.44668 14.5292 6.53188C14.4841 6.63116 14.3426 6.65424 14.2735 6.74812C14.1484 6.71968 14.1292 6.82584 14.0804 6.8972C14.0535 6.92972 14.0239 6.95989 13.9919 6.98736C13.9252 6.97424 13.8623 6.9334 13.7842 6.93032C13.7178 6.92768 13.655 6.8444 13.584 6.92568C13.4831 6.83708 13.3743 6.95192 13.2818 6.91888C13.1802 6.88248 13.0632 6.89316 12.9726 6.8118C12.9411 6.78356 12.87 6.7954 12.817 6.79612C12.7958 6.79791 12.7746 6.79285 12.7565 6.78169C12.7384 6.77053 12.7243 6.75386 12.7164 6.73412C12.6859 6.64916 12.8022 6.64656 12.7414 6.57812C12.7165 6.53412 12.6586 6.5824 12.6208 6.54696C12.6071 6.51218 12.6051 6.47386 12.6153 6.43788C12.6872 6.39978 12.766 6.37622 12.847 6.36856C12.9722 6.36456 13.075 6.28056 13.1902 6.23704C13.4288 6.1543 13.6458 6.01929 13.8255 5.84188C13.8868 5.77687 13.9368 5.70208 13.9735 5.6206C14.0547 5.45074 14.1378 5.28174 14.2227 5.1136C14.2565 5.03544 14.3101 4.96747 14.3783 4.91644Z" fill="#212121"/>
<path d="M0.75075 4.54193L0.84903 4.63473C1.02103 4.62857 1.06283 4.47741 1.09803 4.36773C1.19999 4.05005 1.32659 3.74177 1.43355 3.42633C1.46427 3.33573 1.49023 3.31641 1.69615 3.21857C1.71943 3.32681 1.78051 3.37033 1.90015 3.37521C1.97551 3.37829 2.06951 3.45057 2.11415 3.51869C2.15075 3.57449 2.23539 3.63293 2.22307 3.67717C2.20387 3.74617 2.31347 3.79053 2.24027 3.85745C2.22975 3.86705 2.28907 3.90489 2.27963 3.95001C2.26511 4.01973 2.37615 4.07953 2.32171 4.13801C2.25411 4.21061 2.35907 4.25637 2.32615 4.31429C2.3233 4.32173 2.3233 4.32996 2.32615 4.33741C2.35415 4.42281 2.17243 4.42941 2.25331 4.54961C2.28175 4.59201 2.20411 4.66801 2.16963 4.72757C2.12642 4.79816 2.0748 4.86325 2.01591 4.92141C1.96363 4.97625 1.91007 5.02893 1.82511 5.03941C1.75311 4.93941 1.67683 5.10365 1.59559 5.05965C1.57615 5.21165 1.38735 5.20041 1.33643 5.33565C1.32391 5.37281 1.38147 5.38533 1.38723 5.42517C1.38641 5.44473 1.38062 5.46377 1.37042 5.48049C1.36021 5.4972 1.34593 5.51105 1.3289 5.52073C1.31188 5.53041 1.29267 5.5356 1.27309 5.53582C1.2535 5.53603 1.23419 5.53127 1.21695 5.52197C1.10707 5.46917 0.994911 5.49081 0.880551 5.47597C0.877668 5.37817 0.837296 5.28523 0.767791 5.21637C0.725351 5.17845 0.70999 5.12061 0.73231 5.09333C0.837911 4.96429 0.73587 4.85241 0.71099 4.73733C0.68843 4.63413 0.67799 4.63637 0.75075 4.54193Z" fill="#212121"/>
<path d="M15.4288 9.58945L15.5826 9.43565C15.9192 9.38141 16.2554 9.33205 16.6026 9.42365C16.7041 9.40045 16.7516 9.30073 16.7786 9.21757C16.8138 9.10869 16.9047 9.03913 16.9367 8.93097C16.9604 8.85049 17.0689 8.87097 17.1036 8.80585C17.1803 8.83737 17.2327 8.86665 17.2083 8.95749C17.3166 8.95129 17.4079 8.94993 17.4671 9.04249C17.5128 9.11393 17.6295 9.10569 17.6504 9.22149C17.665 9.30281 17.7298 9.37505 17.7685 9.44473C17.6645 9.59793 17.8131 9.72333 17.8057 9.86301C17.7741 9.95465 17.7446 10.0426 17.6076 10.0486C17.5304 10.0519 17.4493 10.1206 17.3829 10.1756C17.2972 10.2466 17.2227 10.2473 17.1362 10.1746C17.1326 10.2893 17.0322 10.3085 16.9557 10.354C16.9383 10.3442 16.9136 10.318 16.8908 10.3195C16.738 10.3302 16.5965 10.2489 16.4548 10.2494C16.3173 10.2561 16.1805 10.226 16.0585 10.1623C15.9375 10.0921 15.7965 10.0778 15.6809 9.99381C15.6321 9.95833 15.5879 9.94105 15.5672 9.87577C15.5366 9.77941 15.4241 9.72233 15.4288 9.58945Z" fill="#212121"/>
</g>
<defs>
<clipPath id="clip0_408_441">
<rect width="18" height="18" fill="white" transform="translate(0.25)"/>
</clipPath>
</defs>
</svg>
