<svg width="23" height="16" viewBox="0 0 23 16" fill="none" xmlns="http://www.w3.org/2000/svg">
<circle cx="11.6667" cy="8" r="3.5" stroke="#909090"/>
<g clip-path="url(#clip0_296_711)">
<path d="M14.9508 9.96404C14.9093 9.98985 14.871 10.0291 14.8258 10.0399C14.051 10.2263 13.2807 10.4355 12.4987 10.5862C11.5029 10.7782 10.4983 10.9259 9.49621 11.0843C9.24228 11.1244 8.9827 11.1275 8.72679 11.1571C8.56525 11.1758 8.40673 11.2218 8.24508 11.2385C7.82363 11.2822 7.40141 11.3188 6.97902 11.352C6.90547 11.3578 6.82925 11.3241 6.75476 11.3262C6.70915 11.3275 6.66496 11.3781 6.61928 11.3795C6.22286 11.3917 5.82618 11.4075 5.42976 11.4032C4.89073 11.3974 4.3496 11.4009 3.81363 11.3535C2.99605 11.2812 2.18489 11.1522 1.48783 10.6671C1.03125 10.3493 0.634763 9.9852 0.558182 9.38233C0.502827 8.94655 0.617698 8.55691 0.84744 8.2012C1.02089 7.93259 1.23205 7.68855 1.42015 7.42904C1.47221 7.3572 1.49476 7.26452 1.54341 7.18955C1.61883 7.07343 1.69054 6.94914 1.78905 6.85462C2.34431 6.32194 2.96225 5.86752 3.61183 5.45878C4.0927 5.15623 4.58054 4.86152 5.08305 4.59707C6.6895 3.75159 8.3585 3.06052 10.1264 2.62478C11.3078 2.33359 12.5028 2.11249 13.7171 2.03914C14.4501 1.99484 15.1878 2.02688 15.9235 2.0302C16.5192 2.03288 17.1149 2.04433 17.7106 2.05107C18.8028 2.06343 19.8813 2.18049 20.9293 2.50043C21.4535 2.66039 21.9441 2.88962 22.3354 3.2932C22.7853 3.7572 22.9289 4.5822 22.6384 5.1612C22.4054 5.62727 22.0577 6.02635 21.6279 6.32085C21.3998 6.47891 21.1633 6.6273 20.9512 6.80472C20.7704 6.95601 20.6305 7.15572 20.4522 7.31059C20.1736 7.55252 19.8732 7.76952 19.5917 8.00849C19.5015 8.08501 19.448 8.20301 19.3673 8.29272C19.1481 8.53643 18.9478 8.8053 18.6953 9.00884C18.3082 9.32094 17.8878 9.59272 17.4734 9.86962C17.2521 10.0175 17.0139 10.14 16.7833 10.274C16.6159 10.2837 16.4733 10.3419 16.3739 10.4841C16.1051 10.6057 15.8367 10.7281 15.5674 10.8484C15.5094 10.8742 15.4483 10.8929 15.3892 10.9143C15.1731 11.0003 14.9565 11.0866 14.7394 11.1732C14.6678 11.2213 14.6022 11.2852 14.5237 11.3151C12.9461 11.9182 11.3306 12.4173 9.6877 12.809C8.65154 13.0553 7.61915 13.3219 6.57505 13.5286C5.65912 13.71 4.72954 13.8231 3.80515 13.9607C3.65741 13.9827 3.50515 13.9725 3.35531 13.9826C3.27394 13.9898 3.19197 13.9796 3.11487 13.9526C3.03777 13.9256 2.96732 13.8825 2.90821 13.8261C2.89291 13.8127 2.8759 13.8015 2.85763 13.7927C2.81028 13.7683 2.76218 13.7454 2.71434 13.722L2.84486 13.6263C2.83501 13.6163 2.82411 13.6074 2.81234 13.5997C2.76628 13.5763 2.71941 13.5545 2.67283 13.5321C2.72583 13.5001 2.77715 13.4434 2.83209 13.4397C4.68321 13.3134 6.46496 12.8289 8.25196 12.3802C10.3423 11.8553 12.4047 11.2357 14.415 10.4533C14.878 10.2731 15.3356 10.0779 15.7885 9.87384C16.1205 9.72294 16.4416 9.54928 16.7496 9.3541C16.5869 9.4091 16.425 9.46681 16.2612 9.51862C15.9161 9.62762 15.5697 9.73201 15.2251 9.84252C15.1788 9.85736 15.1403 9.89684 15.0983 9.92491L14.9508 9.96404ZM4.89079 5.90991C4.70989 5.9911 4.5225 6.06043 4.34921 6.15552C3.55779 6.58643 2.82957 7.12441 2.18512 7.75426C1.96144 7.97394 1.79086 8.24726 1.59244 8.49317C1.35397 8.78189 1.2156 9.14017 1.19809 9.51423C1.19263 9.62517 1.21821 9.76781 1.28657 9.84614C1.44286 10.0252 1.65815 10.1284 1.91079 10.1919C1.73854 9.87746 1.66583 9.56452 1.84602 9.26049C1.97214 9.04666 2.12603 8.85049 2.30367 8.67707C2.84138 8.15749 3.48754 7.7923 4.14512 7.44991C5.17676 6.91278 6.25954 6.49994 7.3677 6.15155C8.80373 5.69994 10.2679 5.37807 11.7656 5.21888C12.2841 5.16375 12.8043 5.12162 13.3248 5.08701C14.3807 5.0174 15.441 5.06264 16.4872 5.22191C17.0574 5.30804 17.6186 5.42514 18.161 5.64004C18.7126 5.85855 19.2133 6.11884 19.4831 6.68343C19.5159 6.7521 19.5539 6.77552 19.6288 6.73643C19.8079 6.64304 19.9933 6.56162 20.1702 6.46459C20.3144 6.38559 20.4804 6.31717 20.5831 6.19791C20.8165 5.93645 20.9557 5.60436 20.9783 5.25462C20.995 4.9732 20.9489 4.69107 20.7861 4.46949C20.5908 4.20391 20.3875 3.92072 20.0764 3.77865C19.9261 3.71004 19.867 3.50588 19.6667 3.52562C19.6506 3.52723 19.6301 3.47491 19.6096 3.44926C19.5463 3.36988 19.4109 3.39914 19.3674 3.28917C19.3588 3.29465 19.3495 3.29892 19.3398 3.30188C19.2973 3.30852 19.2491 3.32952 19.2129 3.31694C18.7775 3.16591 18.3466 3.00343 17.8923 2.91172C17.476 2.82765 17.0621 2.77862 16.6335 2.80585C16.3671 2.82275 16.0967 2.91185 15.8232 2.81301C15.7706 2.79397 15.6895 2.87381 15.6183 2.88262C15.1504 2.94068 14.6825 3.00323 14.2127 3.04172C13.7551 3.07917 13.3153 3.25355 12.8438 3.19885C12.7358 3.1863 12.5911 3.18552 12.4879 3.31349C12.4417 3.37068 12.3108 3.29507 12.203 3.3502C12.0878 3.40914 11.9318 3.3882 11.7936 3.40246C11.7889 3.40294 11.7849 3.40843 11.7801 3.40959C11.4763 3.48168 11.183 3.59346 10.8855 3.67823C9.75902 3.99923 8.63712 4.33007 7.54308 4.75036C7.29657 4.84507 7.05531 4.95655 6.80338 5.0331C6.46686 5.13536 6.12138 5.20165 5.82544 5.41497C5.71479 5.49472 5.56679 5.52143 5.43834 5.57817C5.38967 5.60429 5.34327 5.63445 5.29963 5.66833L4.89079 5.90991ZM11.7119 5.84717L11.8026 5.73749C11.7623 5.73217 11.7301 5.71897 11.7037 5.72626C11.6449 5.74504 11.5871 5.76679 11.5305 5.79143L11.7176 5.84217C11.6789 5.8712 11.6422 5.92004 11.6004 5.92497C11.5211 5.93439 11.4351 5.90146 11.3585 5.91759C11.248 5.94085 11.1462 6.0062 11.0357 6.0292C10.1839 6.20662 9.32834 6.36668 8.47944 6.55672C8.14489 6.63162 7.82063 6.75926 7.49821 6.88023C6.95021 7.08581 6.37008 7.19988 5.84302 7.46472C5.79876 7.48694 5.74089 7.48126 5.69521 7.50168C5.52341 7.57855 5.35205 7.65691 5.18438 7.7423C5.02954 7.82114 4.8835 7.91762 4.72663 7.99162C4.57502 8.06307 4.41283 8.11097 4.25889 8.17762C3.84509 8.35623 3.5105 8.65504 3.16096 8.9272C2.96776 9.07755 2.80486 9.26913 2.64028 9.45301C2.55702 9.55424 2.48397 9.66344 2.42218 9.77904C2.35067 9.90088 2.41196 9.96507 2.53409 9.97904C2.89344 10.02 3.25344 10.0887 3.61302 10.0887C5.30199 10.0894 6.97008 9.85088 8.63512 9.60104C9.56634 9.46133 10.4932 9.28959 11.4188 9.11555C12.9502 8.82762 14.4697 8.48652 15.9666 8.05001C17.0201 7.74278 18.0618 7.40197 19.0773 6.98346C19.2063 6.93026 19.193 6.88165 19.1169 6.79755C18.8635 6.51752 18.5319 6.34001 18.1931 6.21946C17.7579 6.06462 17.2926 5.99426 16.8413 5.88307C16.8091 5.87514 16.7882 5.82778 16.7578 5.8042C16.7215 5.77607 16.6808 5.75381 16.642 5.72901L16.5958 5.78504L16.7209 5.80807L16.6913 5.84704C16.611 5.83294 16.5276 5.79781 16.4508 5.80868C16.2097 5.84278 15.9784 5.76539 15.7395 5.76481C15.3331 5.76384 14.9266 5.72804 14.5202 5.70565C14.4135 5.69978 14.3073 5.68362 14.2006 5.68307C14.1051 5.68243 14.0094 5.69633 13.9139 5.70426C13.8429 5.7102 13.7716 5.71594 13.7007 5.72336C13.6343 5.73033 13.5498 5.76926 13.5053 5.74194C13.374 5.66107 13.2541 5.71149 13.1331 5.7442C13.0282 5.77259 12.9314 5.81817 12.8679 5.6793C12.8576 5.65691 12.8098 5.65026 12.778 5.64091C12.7741 5.63972 12.7514 5.67136 12.7551 5.67859C12.8192 5.80178 12.7106 5.7451 12.6733 5.75523C12.6223 5.76729 12.5707 5.77638 12.5187 5.78246C12.4302 5.79568 12.3416 5.80862 12.2529 5.82014C12.1453 5.8341 12.0212 5.81768 11.9341 5.8671C11.8374 5.92201 11.7828 5.8853 11.7119 5.84717ZM20.4348 2.92294C20.4101 2.94694 20.3824 2.99423 20.3611 2.99152C20.1524 2.96481 19.945 2.92888 19.7367 2.89797C19.6968 2.89474 19.6567 2.89433 19.6167 2.89675C19.6397 2.92891 19.6666 2.9581 19.6967 2.98365C19.8809 3.10465 20.0727 3.21462 20.2523 3.34188C20.8587 3.77149 21.2309 4.35288 21.3361 5.09065C21.3647 5.29084 21.3405 5.49855 21.3405 5.74323C21.7805 5.41704 22.1391 5.07791 22.3454 4.61465C22.4458 4.38884 22.4643 4.13504 22.3002 3.91859C21.9684 3.48123 21.4666 3.32449 20.9821 3.14152C20.7962 3.07136 20.5689 3.10394 20.4348 2.92294ZM14.7462 2.15717C12.6001 2.12639 9.20105 2.61846 5.29783 4.60314C4.30408 5.10216 3.36697 5.70676 2.5027 6.40646C6.19215 3.79033 10.2783 2.32781 14.7462 2.15717ZM2.7596 8.48549L2.77863 8.51891C2.98576 8.38575 3.18973 8.24736 3.4006 8.12039C4.1468 7.6711 4.92076 7.27407 5.7357 6.96691C6.45257 6.69672 7.17092 6.42046 7.90779 6.21597C8.83331 5.95917 9.77586 5.76114 10.7161 5.56149C11.1108 5.47762 11.5183 5.45375 11.9203 5.4051C12.1553 5.37668 12.3908 5.35249 12.6262 5.32768C12.8634 5.30272 13.1008 5.2793 13.3381 5.25539C13.1542 5.23462 12.9711 5.21691 12.7926 5.23794C12.2478 5.30214 11.7041 5.37588 11.1613 5.45562C9.74131 5.6642 8.33979 5.96088 6.98583 6.44152C6.18354 6.72636 5.39447 7.0512 4.6106 7.38413C3.94529 7.6632 3.32226 8.0339 2.7596 8.48549ZM17.0983 9.45162L17.0711 9.40878C16.8849 9.50917 16.7026 9.6181 16.5114 9.70817C16.0695 9.91636 15.6276 10.1253 15.1778 10.3156C14.6434 10.5417 14.1022 10.7522 13.5604 10.9599C13.4763 10.9922 13.3797 11.0877 13.2765 10.9823C13.2573 10.9934 13.2392 11.0063 13.2223 11.0206C13.1627 11.0635 13.1091 11.1254 13.0426 11.1464C12.0242 11.4669 11.0048 11.7839 9.9845 12.0976C9.8356 12.1436 9.68512 12.1847 9.53537 12.228C9.61806 12.2379 9.70189 12.2294 9.78092 12.2032C10.8661 11.8754 11.9509 11.5464 13.0354 11.2161C13.1427 11.1834 13.1905 11.1911 13.175 11.3188C13.1699 11.361 13.199 11.4073 13.2124 11.4517C13.238 11.4129 13.2614 11.3728 13.2826 11.3315C13.3257 11.236 13.305 11.1204 13.4501 11.0676C13.9996 10.8681 14.545 10.6575 15.0863 10.4357C15.4441 10.2891 15.7918 10.1174 16.143 9.95491C16.3716 9.8491 16.6006 9.74362 16.8253 9.62984C16.9217 9.58094 17.0076 9.51152 17.0983 9.45162ZM10.5478 9.48333L10.5572 9.52355C11.0235 9.43697 11.4909 9.35581 11.9559 9.26278C13.1837 9.01717 14.4082 8.75578 15.6111 8.40443C16.098 8.26223 16.5803 8.10423 17.0627 7.94707C17.3075 7.8673 17.5477 7.77326 17.7901 7.68604C17.8832 7.65252 17.9767 7.62001 18.07 7.58701C18.0645 7.57051 18.0589 7.55404 18.0533 7.53759C15.6109 8.41426 13.0977 9.01936 10.5478 9.48317V9.48333ZM11.2091 10.1662C13.2438 9.84117 15.2453 9.38875 17.16 8.60394C15.2169 9.26847 13.228 9.79054 11.2091 10.166L11.2091 10.1662ZM18.9514 2.30197L18.9534 2.26423L17.5327 2.19326L17.5304 2.23881L18.9514 2.30197ZM9.0615 12.3473L9.07415 12.3949L9.33708 12.316C9.33399 12.3045 9.3309 12.293 9.32783 12.2815L9.0615 12.3473Z" fill="#212121"/>
</g>
<defs>
<clipPath id="clip0_296_711">
<rect width="22.2581" height="12" fill="white" transform="translate(0.537659 2)"/>
</clipPath>
</defs>
</svg>
