<svg width="17" height="12" viewBox="0 0 17 12" fill="none" xmlns="http://www.w3.org/2000/svg">
<g clip-path="url(#clip0_408_455)">
<path d="M16.1882 4.92254C16.1882 4.91873 16.1784 4.91517 16.169 4.9086C16.1652 4.93229 16.1618 4.95319 16.1582 4.97594C16.1208 4.94983 16.0942 4.96855 16.0899 4.99437C16.0839 5.03006 16.0798 5.05572 16.0347 5.07012C16.0034 5.0801 15.9906 5.11572 15.9452 5.12064C15.9106 5.12433 15.8819 5.16269 15.8475 5.18088C15.8219 5.19445 15.7934 5.20285 15.7638 5.2055C15.7343 5.20814 15.7045 5.20497 15.6764 5.19619C15.7227 5.17771 15.7663 5.16468 15.7597 5.11344C15.7589 5.10672 15.7714 5.09767 15.7792 5.09117C15.8487 5.03342 15.9178 4.97529 15.9888 4.91892C16.0092 4.90183 16.0329 4.88832 16.0587 4.8791C16.1224 4.85885 16.1205 4.80451 16.1361 4.76129C16.1417 4.74571 16.1078 4.71422 16.1153 4.70445C16.1559 4.65132 16.1333 4.59804 16.1255 4.54449C16.1223 4.52253 16.116 4.50091 16.1134 4.4789C16.1138 4.44933 16.1111 4.4198 16.105 4.39073C16.0775 4.31884 16.0626 4.24354 16.0607 4.16753C16.0595 4.06053 16.0651 3.95436 16.0427 3.84593C16.023 3.75084 16.0062 3.65412 15.9893 3.55793C15.9633 3.40913 15.904 3.2718 15.8495 3.1314C15.8163 3.04584 15.7557 2.97665 15.7122 2.89785C15.6829 2.84385 15.6501 2.79149 15.6138 2.74106C15.4858 2.56622 15.3247 2.41512 15.1747 2.25626C15.1276 2.20639 15.0607 2.17226 15.0083 2.12582C14.8691 1.99768 14.7116 1.88675 14.54 1.79594C14.4918 1.77151 14.4454 1.74396 14.4 1.71545C14.357 1.68845 14.3165 1.65833 14.2749 1.62957C14.2021 1.64877 14.1797 1.58013 14.1319 1.5569C14.0564 1.52021 13.9886 1.4681 13.9094 1.4345C13.8179 1.39562 13.7154 1.37141 13.6351 1.31918C13.4948 1.22798 13.3279 1.19585 13.1757 1.13306C13.0493 1.08098 12.9186 1.03267 12.7866 0.98923C12.6831 0.955222 12.5911 0.89323 12.4731 0.900262C12.4638 0.900814 12.4451 0.890494 12.4455 0.886318C12.4496 0.841654 12.3897 0.861934 12.3802 0.832654C12.2885 0.825862 12.2069 0.787054 12.1214 0.76243C12.0353 0.73759 11.9427 0.737686 11.8601 0.698038C11.816 0.680559 11.768 0.672548 11.7199 0.674638C11.6459 0.674374 11.5783 0.633838 11.5027 0.65047C11.4436 0.60967 11.3743 0.637318 11.311 0.62695C11.248 0.613276 11.1837 0.605491 11.119 0.603718C10.9462 0.607318 10.7731 0.602062 10.6004 0.605734C10.4266 0.60943 10.2522 0.589102 10.0791 0.626062C10.0007 0.642862 9.91389 0.60883 9.83701 0.65047C9.71013 0.64495 9.58901 0.68119 9.46544 0.69259C9.34864 0.703366 9.23877 0.74779 9.11994 0.74155C9.04584 0.788278 8.95376 0.789022 8.87194 0.804358C8.7828 0.821038 8.69514 0.846886 8.60362 0.858046C8.51344 0.869038 8.4269 0.903382 8.33322 0.900958C8.28858 0.936718 8.2284 0.929158 8.17637 0.94447C8.11989 0.961102 8.0537 0.952702 7.9989 0.971782C7.94248 0.991438 7.88282 0.978478 7.83242 0.995062C7.76392 1.01762 7.69293 1.0205 7.62442 1.03709C7.552 1.05461 7.4781 1.06713 7.40525 1.08336C7.32128 1.10208 7.23626 1.1184 7.15432 1.14288C6.92472 1.21149 6.6952 1.28021 6.46714 1.35333C6.22366 1.42821 5.98469 1.51447 5.7512 1.61177C5.43234 1.74921 5.11872 1.89698 4.82893 2.08332C4.66466 2.18892 4.5052 2.29961 4.35053 2.41538C4.25216 2.48911 4.1617 2.57186 4.0668 2.64967C3.88349 2.79993 3.71352 2.96333 3.53856 3.12077L3.56688 3.15065C3.49824 3.15753 3.46693 3.20121 3.42821 3.24089C3.32981 3.34202 3.20922 3.42449 3.12421 3.53762C3.08355 3.58836 3.03892 3.63641 2.99064 3.68141C2.94426 3.72729 2.93152 3.79836 2.85842 3.82392C2.7672 3.99475 2.60034 4.12308 2.52584 4.30332C2.39333 4.44686 2.33538 4.62825 2.22717 4.78471C2.19022 4.83038 2.15898 4.87958 2.13402 4.93142C2.09963 5.01347 2.0594 5.09343 2.01357 5.17082C1.92165 5.33534 1.86618 5.5109 1.79224 5.68063C1.75616 5.76341 1.7432 5.85189 1.71592 5.93683C1.70072 5.98411 1.6729 6.02978 1.66792 6.07764C1.66069 6.14654 1.62858 6.21007 1.61976 6.2754C1.61034 6.34481 1.58117 6.40649 1.56429 6.4722C1.55538 6.50693 1.53229 6.53731 1.53712 6.57684C1.53978 6.59916 1.50717 6.63444 1.51656 6.64493C1.55005 6.68208 1.51389 6.69293 1.49632 6.7127C1.49243 6.71882 1.48981 6.72552 1.48858 6.73248C1.46016 6.81926 1.45949 6.91025 1.44181 6.99888C1.42314 7.09212 1.43914 7.18949 1.41568 7.28541C1.39968 7.35055 1.41493 7.42152 1.41173 7.4897C1.40732 7.5312 1.40046 7.57246 1.39117 7.6133L1.46744 7.65782C1.44122 7.66836 1.41611 7.68099 1.3924 7.69555C1.37877 7.70744 1.36885 7.72233 1.36362 7.73875C1.40005 7.76534 1.35781 7.78826 1.36096 7.81284C1.36496 7.84277 1.35722 7.87421 1.36317 7.90361C1.36989 7.93687 1.3352 7.96085 1.33946 7.98504C1.34688 8.0268 1.33064 8.06597 1.32696 8.10427C1.32253 8.15049 1.37258 8.20495 1.31189 8.24546C1.3592 8.29447 1.33008 8.35308 1.33565 8.4071C1.34032 8.45225 1.33336 8.4983 1.3376 8.54357C1.34125 8.58254 1.36226 8.62142 1.35914 8.65927C1.35664 8.68958 1.33701 8.71584 1.37661 8.73847C1.38349 8.74241 1.38085 8.76348 1.3784 8.77596C1.37573 8.78937 1.36045 8.81124 1.36386 8.81352C1.40304 8.83992 1.38946 8.87753 1.3852 8.90805C1.37928 8.95176 1.40154 8.98577 1.41677 9.02246C1.42904 9.05193 1.4549 9.07915 1.45776 9.10867C1.45954 9.12732 1.43144 9.14028 1.45197 9.17304C1.48776 9.23023 1.48664 9.30343 1.53557 9.35784C1.51981 9.43075 1.56965 9.48948 1.59157 9.55346C1.61557 9.62349 1.63592 9.69885 1.69749 9.75233C1.73045 9.78096 1.74941 9.80913 1.74162 9.85041C1.73954 9.86148 1.73592 9.87885 1.74216 9.88363C1.80581 9.93237 1.81192 10.0138 1.86749 10.0646C1.93962 10.1305 1.96882 10.23 2.07016 10.2723C2.1356 10.3803 2.25258 10.4457 2.33888 10.5364C2.36685 10.5658 2.38928 10.6032 2.42421 10.6224C2.45808 10.6411 2.46706 10.6524 2.45989 10.6885C2.45557 10.7101 2.47973 10.7563 2.49498 10.7578C2.54426 10.7624 2.52533 10.8049 2.55234 10.8223C2.61552 10.8628 2.67178 10.912 2.73125 10.9573C2.73522 10.9603 2.74272 10.9595 2.75818 10.9621C2.76712 10.9498 2.77832 10.9345 2.78936 10.9194L2.82874 10.9542L2.73008 11.0112C2.80968 11.0124 2.87773 10.9993 2.88616 11.0744C2.93563 11.0889 2.9807 11.1136 3.01786 11.1464C3.05237 11.1802 3.08498 11.2232 3.15074 11.1999C3.15389 11.1988 3.17058 11.2379 3.1789 11.2373C3.20127 11.2325 3.22264 11.2245 3.24218 11.2136L3.29552 11.288C3.30757 11.2698 3.31669 11.256 3.32578 11.2422C3.34178 11.2729 3.37338 11.2379 3.37762 11.2458C3.41546 11.3162 3.49496 11.3184 3.56162 11.3394C3.60486 11.3553 3.65125 11.363 3.69792 11.362C3.7446 11.3611 3.79056 11.3515 3.83296 11.3339C3.8573 11.343 3.86762 11.3933 3.9173 11.3687C3.91544 11.3651 3.91308 11.3616 3.91029 11.3585C3.89328 11.345 3.87869 11.3276 3.90178 11.3125C3.91954 11.301 3.93784 11.3048 3.94445 11.332C3.9484 11.3483 3.96784 11.3616 3.986 11.3829C3.99314 11.3485 3.99741 11.3281 4.00562 11.2886L4.09141 11.3659C4.09144 11.3573 4.09325 11.3489 4.09674 11.3409C4.12032 11.3014 4.15008 11.3719 4.17578 11.3383C4.17744 11.3361 4.1924 11.3393 4.19237 11.3395C4.1897 11.3797 4.22821 11.3877 4.24837 11.3742C4.29525 11.3427 4.3092 11.3784 4.3325 11.3966L4.43752 11.3544C4.46501 11.3939 4.49053 11.3707 4.51856 11.3539C4.53989 11.3412 4.56256 11.3971 4.5865 11.355C4.61392 11.3916 4.63914 11.3517 4.66608 11.3521C4.7877 11.3539 4.90522 11.3226 5.02493 11.3108C5.0836 11.305 5.09976 11.2778 5.11784 11.2408C5.16765 11.2617 5.16765 11.2617 5.29842 11.2321C5.29632 11.2123 5.29434 11.1937 5.29237 11.1752C5.31008 11.1796 5.3274 11.1853 5.34418 11.1921C5.35246 11.197 5.35969 11.2031 5.36552 11.2103C5.45085 11.1854 5.53645 11.1654 5.5981 11.1054C5.60029 11.1033 5.6056 11.103 5.60946 11.103C5.63446 11.1062 5.65986 11.1056 5.68464 11.1012C5.70562 11.094 5.71789 11.0676 5.73874 11.0586C5.77047 11.047 5.80317 11.0378 5.83653 11.0309C5.84064 11.0058 5.84394 10.9854 5.84794 10.9609L5.92104 10.9874V10.9202H6.03229C6.10845 10.8481 6.12186 10.7425 6.21453 10.6869C6.21389 10.6504 6.27904 10.6227 6.23256 10.58L6.1253 10.7034V10.5749C6.18866 10.6046 6.18874 10.5283 6.23418 10.5326C6.22811 10.5186 6.22374 10.5042 6.22117 10.4894C6.22186 10.4743 6.22435 10.4594 6.22861 10.4448L6.24304 10.445C6.25605 10.4893 6.26905 10.5336 6.28205 10.5779C6.28851 10.5741 6.29441 10.5696 6.29962 10.5645C6.34107 10.5163 6.37926 10.4659 6.414 10.4136C6.44486 10.3602 6.48041 10.3091 6.52032 10.2609C6.5765 10.1945 6.60778 10.1116 6.65701 10.0398C6.68122 10.0045 6.68314 9.98018 6.65344 9.9558C6.68377 9.93912 6.71156 9.91895 6.7361 9.8958C6.76909 9.8518 6.79944 9.80623 6.82701 9.75931C6.85682 9.71349 6.88322 9.66552 6.91722 9.62251C6.96324 9.56627 7.02947 9.52609 7.10466 9.5088C7.12379 9.50511 7.14247 9.4997 7.1604 9.49265C7.18893 9.47904 7.15754 9.45962 7.15994 9.45391C7.16909 9.43214 7.18744 9.44124 7.20768 9.4511C7.22981 9.46188 7.25714 9.43853 7.25714 9.41333C7.25256 9.38184 7.18728 9.37704 7.21448 9.32841C7.24736 9.33535 7.28717 9.3563 7.31264 9.34663C7.3713 9.32436 7.34589 9.42408 7.41072 9.38467C7.39045 9.36941 7.36248 9.34387 7.3972 9.3282C7.44296 9.30744 7.42282 9.36518 7.44397 9.37085C7.48264 9.37085 7.52368 9.38179 7.54797 9.3683C7.5853 9.34747 7.6093 9.34075 7.64664 9.36643C7.65957 9.37533 7.69093 9.36377 7.71349 9.35981C7.73035 9.358 7.74592 9.35077 7.75732 9.33945C7.76873 9.32813 7.7752 9.31348 7.77554 9.2982C7.78869 9.31418 7.80352 9.32897 7.81984 9.34238C7.84472 9.35904 7.9005 9.33468 7.89821 9.38993C7.90887 9.39227 7.91993 9.39276 7.9308 9.39137C7.94552 9.38738 7.968 9.37063 7.97106 9.37349C8.00173 9.40171 8.04098 9.38906 8.07538 9.39677C8.09773 9.40178 8.11538 9.42403 8.13712 9.43997L8.15394 9.38652C8.2041 9.46365 8.28786 9.4764 8.376 9.51151L8.45093 9.44402C8.44157 9.46608 8.43418 9.48357 8.42402 9.50753C8.46581 9.53558 8.50749 9.57365 8.55789 9.59489C8.61922 9.62069 8.68856 9.63105 8.73173 9.68498C8.73483 9.68719 8.73838 9.68883 8.74218 9.6898C8.74599 9.69077 8.74996 9.69106 8.75389 9.69065C8.81229 9.68882 8.84314 9.76217 8.91056 9.73764C8.91221 9.73704 8.9201 9.75461 8.92749 9.76164C8.94336 9.77673 8.96677 9.80556 8.97666 9.80244C9.04421 9.78084 9.05917 9.84391 9.10077 9.86203C9.12744 9.87362 9.14189 9.90763 9.15872 9.92789L9.23872 9.89215C9.25327 9.9148 9.26964 9.93645 9.2877 9.95695C9.3001 9.96921 9.3084 9.99744 9.34288 9.97039C9.35861 9.95805 9.34733 10.0228 9.39157 10.0097C9.46592 10.0573 9.5625 10.0731 9.62197 10.1432C9.63434 10.1578 9.6673 10.1569 9.68429 10.17C9.71912 10.1968 9.7672 10.1861 9.8045 10.2143C9.84222 10.2397 9.8873 10.2548 9.93432 10.2577C9.95052 10.2589 9.96629 10.263 9.98072 10.2698C9.99514 10.2765 10.0079 10.2858 10.0183 10.2971C10.1011 10.3715 10.2118 10.4154 10.3287 10.4201C10.3497 10.4217 10.3815 10.4398 10.3887 10.4331C10.4218 10.4023 10.4379 10.4324 10.4623 10.4411C10.4721 10.4449 10.4826 10.4469 10.4932 10.4469C10.5038 10.4469 10.5143 10.4449 10.524 10.4411C10.5814 10.406 10.644 10.4241 10.7043 10.4199C10.7443 10.4171 10.7846 10.4254 10.8214 10.3981C10.8428 10.3821 10.8702 10.3742 10.8979 10.3761C10.9471 10.3847 10.9506 10.3324 10.9639 10.3325C11.0213 10.3329 11.0599 10.2989 11.1069 10.2821C11.1757 10.2577 11.2412 10.2258 11.3096 10.2005C11.3767 10.1794 11.4377 10.145 11.488 10.0997C11.5472 10.0401 11.6403 10.0409 11.704 9.98834C11.7508 9.94963 11.8118 9.92491 11.8679 9.93993C11.9159 9.89702 11.9525 9.85956 11.9948 9.82862C12.0146 9.81422 12.0497 9.8171 12.0707 9.8033C12.0917 9.7895 12.0978 9.7577 12.1189 9.74635C12.2867 9.65669 12.3728 9.50604 12.4626 9.36283C12.5444 9.22706 12.6155 9.08626 12.6753 8.94149C12.7109 8.85945 12.7092 8.76576 12.7727 8.69306C12.7768 8.68838 12.7727 8.67823 12.7733 8.67067C12.7797 8.59773 12.8053 8.52749 12.8012 8.45227C12.7992 8.41531 12.8351 8.37823 12.8233 8.33669C12.8176 8.31645 12.8003 8.29733 12.8003 8.27772C12.8003 8.25811 12.8181 8.23903 12.8232 8.21873C12.8355 8.17005 12.8024 8.12587 12.8005 8.0802C12.7928 7.905 12.8025 7.7298 12.7765 7.55421C12.7593 7.43863 12.772 7.3193 12.774 7.20168C12.7745 7.16993 12.7647 7.13822 12.7937 7.10568C12.802 7.09264 12.8066 7.07791 12.807 7.06285C12.8074 7.0478 12.8035 7.0329 12.7958 7.01954C12.7558 6.97661 12.8136 6.96689 12.8128 6.93871L12.8562 6.96698C12.8465 6.91629 12.8402 6.88298 12.833 6.84547C12.91 6.80928 12.921 6.72357 12.9756 6.66581C12.9591 6.63876 13.0099 6.61814 12.9845 6.5903C12.9818 6.5874 12.9786 6.58495 12.9673 6.57499C13.0241 6.58159 13.0502 6.5567 13.0719 6.51962C13.1038 6.45945 13.1521 6.40745 13.2121 6.36842C13.2207 6.36326 13.2224 6.34968 13.2288 6.34097C13.2513 6.31073 13.2691 6.27516 13.3184 6.27377C13.3166 6.26265 13.3147 6.25157 13.3124 6.23748C13.3585 6.22248 13.3988 6.19587 13.4286 6.16082C13.4684 6.11483 13.5213 6.07936 13.5817 6.05815C13.6031 6.04749 13.6227 6.03401 13.6396 6.01814C13.6186 6.00243 13.5951 5.98973 13.5698 5.98049C13.5515 5.97725 13.5299 5.98929 13.507 5.99529C13.5054 5.93256 13.5697 5.94009 13.5962 5.91384L13.6318 5.95598C13.6403 5.94632 13.6494 5.93707 13.659 5.92829C13.6692 5.91972 13.6812 5.91283 13.6979 5.90153C13.7003 5.91471 13.7044 5.92759 13.71 5.93993C13.7192 5.94911 13.7296 5.95718 13.7411 5.96393L13.8567 5.84933C13.8587 5.84988 13.875 5.85929 13.8827 5.85528C13.9136 5.83875 13.9431 5.82014 13.971 5.79962C13.9906 5.78546 14.0042 5.76057 14.0257 5.75359C14.0488 5.749 14.0727 5.74836 14.096 5.75169C14.1199 5.721 14.135 5.70151 14.151 5.68094C14.1702 5.70158 14.1659 5.74255 14.208 5.72762C14.2822 5.70122 14.3606 5.69095 14.4362 5.67242C14.4781 5.66208 14.5268 5.67777 14.554 5.65759C14.5976 5.62517 14.6503 5.65548 14.6826 5.63397C14.7269 5.60441 14.7703 5.62027 14.8137 5.61477C14.83 5.61269 14.8518 5.61885 14.8624 5.61134C14.9323 5.56197 15.0216 5.57306 15.1 5.55072C15.1557 5.53488 15.2185 5.53841 15.2672 5.5007C15.3374 5.51429 15.387 5.46777 15.4468 5.45085C15.4577 5.44776 15.4666 5.433 15.4761 5.43326C15.5638 5.43566 15.6298 5.37849 15.7106 5.36522C15.7645 5.35637 15.7852 5.31321 15.8256 5.29025C15.9803 5.20209 16.0058 5.20008 16.0908 5.07734C16.0943 5.07233 16.1044 5.07081 16.1115 5.06805C16.1847 5.04 16.1903 4.98273 16.1882 4.92254ZM2.9765 6.05964C2.96441 6.1113 2.94863 6.16222 2.92928 6.21206C2.90736 6.25766 2.89762 6.3077 2.87594 6.35126C2.85098 6.40166 2.85021 6.45463 2.8297 6.50445C2.7737 6.64037 2.74824 6.78408 2.70253 6.92273C2.69917 6.9329 2.70053 6.95049 2.69429 6.9528C2.65005 6.96907 2.68096 7.01858 2.65498 7.03238C2.60208 7.06065 2.63981 7.10875 2.6145 7.1442C2.5948 7.1718 2.60024 7.21397 2.5945 7.24963C2.56202 7.26146 2.54533 7.25155 2.55122 7.22083C2.5572 7.18963 2.55746 7.14941 2.57904 7.1303C2.62669 7.08806 2.5737 7.02653 2.6228 6.98921C2.59448 6.96197 2.58234 6.94433 2.63954 6.93101C2.65765 6.92681 2.6825 6.87264 2.67293 6.85855C2.63309 6.7998 2.68008 6.74757 2.68496 6.69535C2.68989 6.64272 2.7145 6.58677 2.72882 6.53162C2.74441 6.47725 2.76343 6.42372 2.78581 6.3713C2.81869 6.28881 2.83058 6.19989 2.87954 6.12233C2.82576 6.06902 2.91816 6.04281 2.90952 5.991C2.9029 5.95123 2.93909 5.90594 2.9553 5.86281C2.9728 5.81628 2.97981 5.7641 3.00797 5.72381C3.06882 5.63678 3.10586 5.54023 3.15837 5.45021C3.16901 5.43554 3.18125 5.42188 3.1949 5.40941C3.13762 5.6352 3.04498 5.84376 2.9765 6.05964ZM3.77602 5.61564C3.74909 5.68881 3.71888 5.7611 3.68701 5.83267C3.6548 5.90505 3.63256 5.97967 3.60845 6.05421C3.58384 6.1302 3.54386 6.20616 3.52202 6.2825C3.48872 6.399 3.4425 6.51175 3.41058 6.62837C3.38714 6.71395 3.34853 6.79514 3.32738 6.88224C3.30645 6.96842 3.28784 7.05569 3.26002 7.14089C3.22284 7.25277 3.20462 7.36906 3.206 7.48584C3.20283 7.53591 3.19232 7.58539 3.17474 7.63298C3.17031 7.64351 3.1683 7.65473 3.16882 7.66598C3.16935 7.67722 3.17241 7.68825 3.17781 7.69841C3.18848 7.72255 3.16517 7.75841 3.15826 7.78937C3.14805 7.83523 3.1716 7.88148 3.13626 7.92984C3.11021 7.96557 3.1409 8.01931 3.11186 8.06837C3.08973 8.10578 3.10746 8.16233 3.09717 8.21059C3.08901 8.1587 3.06352 8.10965 3.07466 8.05639C3.07488 8.05533 3.06842 8.05231 3.06474 8.05159C3.0569 8.05005 3.04874 8.04943 3.03541 8.04777C3.04288 8.03261 3.04962 8.01845 3.05674 8.00457C3.06702 7.98969 3.07508 7.97367 3.08074 7.95691C3.08314 7.94366 3.06885 7.92811 3.07061 7.9146C3.0849 7.80391 3.12413 7.69759 3.13728 7.5858C3.14718 7.53227 3.15405 7.47832 3.15786 7.42416C3.15816 7.36929 3.17794 7.31616 3.18885 7.26389C3.20184 7.20173 3.19386 7.13765 3.21234 7.07997C3.22658 7.02302 3.23414 6.96488 3.23488 6.9065C3.23592 6.86703 3.24469 6.82803 3.26077 6.7913C3.31144 6.69437 3.32893 6.58913 3.3637 6.48835C3.40104 6.38035 3.4537 6.27761 3.4653 6.16111C3.47277 6.08616 3.50989 6.01185 3.54402 5.94129C3.57816 5.87073 3.60328 5.79521 3.64229 5.72796C3.68264 5.65836 3.72762 5.59377 3.74264 5.51419C3.74653 5.49355 3.78312 5.47793 3.82605 5.44219C3.80554 5.51441 3.79426 5.56605 3.77602 5.61561V5.61564ZM7.92245 6.16843C7.91661 6.18326 7.93045 6.20443 7.93536 6.22265C7.87514 6.21984 7.90248 6.27122 7.88234 6.29131C7.8172 6.35633 7.78248 6.44136 7.70605 6.49937C7.67306 6.5244 7.65288 6.56268 7.62408 6.59277C7.60957 6.60442 7.59343 6.6143 7.57608 6.62217C7.5357 6.55689 7.56946 6.51036 7.62141 6.48667C7.66344 6.46747 7.67349 6.44553 7.69208 6.41081C7.71332 6.36901 7.7431 6.33118 7.77986 6.29928C7.84685 6.24648 7.87136 6.17057 7.92818 6.11402C7.932 6.11023 7.9244 6.09837 7.92512 6.0905C7.92512 6.0869 7.92592 6.08333 7.92747 6.08C7.92903 6.07668 7.9313 6.07366 7.93416 6.07113C7.93785 6.06994 7.94182 6.06963 7.94568 6.07024C7.94954 6.07085 7.95316 6.07235 7.95618 6.07459C7.96126 6.08417 7.96434 6.09451 7.96528 6.10509C7.97056 6.13745 7.93133 6.14597 7.92245 6.16841V6.16843ZM8.72368 5.94391C8.67874 5.98286 8.70365 6.04209 8.64802 6.08853H8.60066C8.60349 6.11942 8.60581 6.14496 8.6088 6.17774C8.59624 6.18782 8.58154 6.19549 8.5656 6.2003C8.54353 6.20088 8.52151 6.19816 8.50042 6.19226C8.47733 6.21242 8.52384 6.26465 8.47528 6.27305C8.41608 6.28329 8.46496 6.33206 8.42805 6.35282C8.39962 6.36878 8.39586 6.35083 8.38165 6.34461C8.3669 6.42559 8.3669 6.42559 8.28349 6.52425C8.25149 6.49284 8.25149 6.49293 8.28304 6.45614C8.28776 6.45049 8.29159 6.44428 8.29442 6.43769C8.33658 6.34135 8.33653 6.34133 8.40586 6.28776L8.32544 6.26894C8.30349 6.22461 8.34634 6.1968 8.35917 6.16135C8.408 6.17318 8.38656 6.12312 8.41085 6.11381C8.42693 6.10576 8.44459 6.10059 8.46285 6.09857C8.46874 6.09857 8.47456 6.12257 8.48469 6.14491C8.51669 6.10514 8.54485 6.06998 8.59088 6.0126L8.50141 6.0438V5.98886C8.54194 5.97305 8.58357 5.95322 8.5996 5.90575C8.6024 5.89745 8.62389 5.89425 8.63674 5.88871L8.65541 5.92913L8.71837 5.90652C8.72109 5.92389 8.72866 5.93964 8.72368 5.94389V5.94391Z" fill="#212121"/>
</g>
<defs>
<clipPath id="clip0_408_455">
<rect width="16" height="12" fill="white" transform="translate(0.75)"/>
</clipPath>
</defs>
</svg>
