<svg width="112" height="108" viewBox="0 0 112 108" fill="none" xmlns="http://www.w3.org/2000/svg">
<g clip-path="url(#clip0_1_27)">
<path d="M51.0142 108C26.1624 107.575 9.20577 93.5549 2.18622 71.2348C-1.84121 58.4287 -0.0945818 46.0033 5.70525 34.258C11.5628 22.3956 20.3001 12.9242 32.196 6.85722C37.1649 4.32341 42.4913 2.47308 47.7228 0.493197C49.7628 -0.278523 51.9293 -0.0888269 54.0756 0.675867C56.8017 1.63058 59.6822 2.06394 62.5676 1.95345C68.9272 1.73818 74.6087 3.78017 79.8747 7.03173C83.4237 9.2224 87.2549 10.9943 90.4331 13.7684C100.308 22.3896 107.175 32.9752 111.033 45.5253C112.497 50.248 111.983 55.0751 111.527 59.8499C111.264 62.6015 110.192 65.321 109.762 67.9599C109.425 70.0115 107.755 71.501 107.887 72.8696C108.086 74.9383 107.242 76.2459 106.411 77.6879C98.5959 91.2518 86.3516 98.9462 71.9255 103.73C66.8162 105.424 61.6355 106.844 56.3124 107.645C54.2569 107.954 52.1499 107.931 51.0142 108ZM20.2867 41.5506C20.5075 41.4031 20.7987 41.3196 20.8564 41.1538C23.0294 34.9373 27.3749 30.4087 32.1091 26.0785C34.4603 23.9284 36.0194 21.0362 38.0788 17.9005C31.5091 20.0214 20.5739 34.953 20.2867 41.5506ZM91.2437 64.8124L78.3035 81.5024C86.5784 74.4499 90.5929 69.1861 91.2437 64.8135V64.8124ZM18.579 20.0945C23.234 16.1038 28.6176 13.0284 32.8513 8.50913C27.478 11.5977 22.392 15.0468 18.579 20.0945ZM79.0986 62.8791C77.2009 65.273 74.4815 67.1562 74.1609 70.5595C76.3739 68.3725 78.3968 66.0649 79.0986 62.8791ZM34.3703 41.192C36.407 38.1152 38.9199 35.3518 39.9956 31.7585C37.0205 34.2603 35.7955 37.8078 34.3703 41.192ZM94.1388 90.2446L94.6046 90.6301C96.6836 89.1318 98.4467 87.2361 99.7926 85.0522C98.794 85.7862 97.9958 86.7167 97.1208 87.5677C96.1635 88.4982 95.136 89.3545 94.1388 90.2446ZM16.081 22.4403C14.9709 23.2617 14.1926 24.0009 13.7478 25.0516C13.6261 25.3389 13.4583 25.6671 13.7988 25.8714C14.0086 25.9263 14.2298 25.919 14.4355 25.8503C14.4658 24.5261 16.5995 24.3735 16.081 22.4403Z" fill="#212121"/>
</g>
<defs>
<clipPath id="clip0_1_27">
<rect width="112" height="108" fill="white"/>
</clipPath>
</defs>
</svg>
