<svg width="23" height="25" viewBox="0 0 23 25" fill="none" xmlns="http://www.w3.org/2000/svg">
<g clip-path="url(#clip0_104_701)">
<path d="M10.4422 2.22222C10.4605 2.44705 10.6049 2.72749 10.1766 2.56882C9.94895 2.48451 9.82007 2.87225 9.51084 2.90851C9.34487 2.92794 9.07384 3.01943 8.85696 3.09359C8.71487 3.14222 8.53429 3.08501 8.48418 3.30413C8.46878 3.37162 8.42349 3.41936 8.36031 3.38165C8.03782 3.18921 7.82705 3.46057 7.59642 3.59117C6.65347 4.12451 5.7442 4.73206 4.94951 5.47054C3.81388 6.52571 2.73937 7.65676 1.83119 8.94051C1.81408 8.96463 1.80534 9.00489 1.78347 9.01429C1.57862 9.10178 1.81952 9.69651 1.34237 9.45365C0.691166 9.12216 0.542238 8.82635 0.789555 8.32349C1.08044 7.73219 1.39718 7.15276 1.73342 6.58787C2.95191 4.54063 4.65563 3.01778 6.65017 1.84997C7.99339 1.06349 9.47436 0.677841 11.0125 0.563936C12.1983 0.476126 13.3854 0.45638 14.5539 0.740824C14.9607 0.839872 15.3825 0.932634 15.7487 1.1273C15.9406 1.2294 16.139 1.27968 16.3126 1.36514C16.9869 1.69651 17.7616 1.84482 18.2902 2.47898C18.4192 2.63378 18.6883 2.61835 18.891 2.75981C20.8038 4.09447 22.0091 5.92667 22.3718 8.27632C22.7259 10.5705 22.8089 12.8841 22.2793 15.1775C22.1602 15.6933 21.9272 16.1476 21.6993 16.6194C21.4375 17.1613 21.0957 17.6656 20.9082 18.2477C20.868 18.3723 20.8169 18.5149 20.7267 18.597C20.1854 19.088 19.8086 19.729 19.2985 20.2509C18.722 20.8306 18.092 21.35 17.4177 21.8016C16.886 22.1656 16.3975 22.6044 15.8833 22.9943C15.2561 23.4698 14.4924 23.7029 13.7562 23.9675C13.0771 24.2116 12.3739 24.3294 11.6695 24.4512C11.5534 24.4712 11.4572 24.542 11.37 24.3987C11.3531 24.3766 11.3312 24.3592 11.3063 24.3479C11.2814 24.3367 11.2542 24.332 11.2272 24.3342C10.1161 24.7167 8.63775 24.3509 7.74418 23.8688C6.6212 23.263 5.59411 22.5037 4.77791 21.5081C4.11683 20.6968 3.64679 19.7367 3.40505 18.7038C3.20998 17.8934 2.99078 17.0924 2.85652 16.2657C2.66988 15.1165 2.96927 14.09 3.51927 13.1219C3.98608 12.3111 4.49565 11.5278 5.04564 10.7754C5.59301 10.0173 6.39992 9.70032 7.19828 9.43695C8.1615 9.12068 9.17029 8.98069 10.1796 9.02324C10.8654 9.03881 11.5198 9.3245 12.0104 9.82248C12.7147 10.5215 13.2241 11.3587 13.6264 12.2733C13.9625 13.0377 13.9764 13.8751 14.1283 14.6806C14.1644 14.8721 14.0391 15.0095 13.8173 15.0256C13.6293 15.0392 13.4812 15.1213 13.5557 15.3684C13.5852 15.3684 13.5994 15.3695 13.6132 15.3684C13.7949 15.3518 13.8205 14.9727 14.0492 15.1283C14.2563 15.2692 14.2006 15.5299 14.1829 15.7543C14.1084 16.6981 13.7722 17.523 13.0898 18.159C12.5242 18.686 12.0218 19.2737 11.2459 19.5502C9.67933 20.1084 8.90364 19.6352 7.76197 18.5376C7.38681 18.1769 7.27381 17.6674 7.09799 17.1935C6.57403 15.7806 7.59794 14.8328 8.7458 14.8199C8.62174 15.3036 8.00055 15.205 7.79124 15.7064C8.18235 15.5836 8.42808 15.3457 8.72013 15.2057C8.85005 15.1434 9.07928 14.9789 9.13073 15.1486C9.19184 15.3501 9.51427 15.4319 9.29176 15.8309C9.05465 16.2563 8.79328 16.716 8.66464 17.2146C8.55513 17.6391 8.82053 17.9721 9.22802 17.9347C10.3685 17.8303 11.3514 17.3194 12.1444 16.5074C12.6567 15.983 12.7961 15.2156 12.7391 14.4682C12.6792 13.6822 12.6444 12.8854 12.3319 12.1408C12.238 11.9173 11.7992 11.1123 11.6062 10.9623C11.459 10.8497 11.2799 10.7912 11.0972 10.7961C10.9987 10.7967 10.8363 10.9055 10.8192 10.6522C10.811 10.5316 10.6053 10.5276 10.5976 10.6242C10.5714 10.9483 10.3313 10.867 10.1787 10.8765C9.34083 10.9284 8.56063 11.2502 7.74999 11.426C7.57906 11.4624 7.42092 11.5465 7.29262 11.6693C7.16433 11.7922 7.07075 11.9491 7.02197 12.1231C6.9821 12.285 6.88627 12.4259 6.75278 12.519C6.09015 12.9381 5.91036 13.6716 5.59631 14.3286C5.41004 14.7182 5.05933 15.0068 4.92934 15.4516C4.72208 16.1668 4.69736 16.9257 4.8576 17.6538C5.02786 18.4576 5.22384 19.2646 5.55255 20.0185C6.02806 21.1094 6.94332 21.6497 7.97677 22.0339C8.37668 22.1825 8.83679 22.0964 9.2078 22.4118C9.26573 22.461 9.60978 22.2658 9.84836 22.242C12.1126 22.0156 14.1395 21.1255 16.055 19.8848C17.286 19.0874 18.2087 18.0037 19.0183 16.7858C20.2478 14.9365 20.612 12.8328 20.6569 10.6495C20.6886 9.55159 20.6401 8.45273 20.5118 7.36241C20.3142 5.79365 19.5402 4.66647 18.2031 3.90514C17.592 3.5572 16.9625 3.23632 16.3508 2.89403C16.1041 2.756 15.7236 2.55682 15.2868 2.65505C14.9072 2.74038 14.459 2.51613 14.0245 2.50267C13.5572 2.48838 13.0983 2.29949 12.6205 2.4306C12.4972 2.46444 12.4696 2.42203 12.5376 2.29371C12.547 2.27779 12.5509 2.25903 12.5486 2.24051C12.5464 2.22199 12.5381 2.20481 12.5252 2.19182C12.5123 2.17882 12.4956 2.17078 12.4777 2.16901C12.4598 2.16724 12.4418 2.17186 12.4268 2.18209C12.037 2.54559 11.4803 2.23047 11.0599 2.58286C10.8059 2.79524 10.727 2.29048 10.4422 2.22222ZM8.48809 1.65638C7.22877 1.54114 3.25563 4.57162 2.68033 5.94C4.38222 4.16876 6.18799 2.55162 8.48809 1.65638ZM12.6301 22.3453C12.9972 22.2268 13.3707 22.1264 13.7301 21.9865C15.1684 21.4267 16.4306 20.5422 17.6657 19.6189C17.7708 19.5403 18.0214 19.3176 17.803 19.0324C16.3311 20.5762 14.4696 21.4295 12.6301 22.3453ZM10.3254 18.2541C10.5107 18.1947 10.6937 18.125 10.8819 18.0778C11.4681 17.9312 11.8438 17.4408 12.3281 17.1284C12.3721 17.0996 12.4036 17.0542 12.416 17.0018C12.4285 16.9494 12.4209 16.894 12.3949 16.8472C12.3257 16.7286 12.239 16.8131 12.1893 16.8797C11.7038 17.5307 10.9799 17.8068 10.3254 18.2541ZM7.09628 10.0703C6.60177 10.1148 6.21592 10.3759 5.87363 10.7236C6.34859 10.6401 6.70016 10.3109 7.09628 10.0703ZM8.05053 3.09213C7.89262 3.09213 7.78054 3.09809 7.66932 3.0906C7.5188 3.08051 7.43337 3.16933 7.36841 3.29009C7.34067 3.34165 7.3227 3.42425 7.38546 3.44247C7.50066 3.47587 7.59611 3.41625 7.68319 3.32882C7.77162 3.24 7.93564 3.29136 8.05053 3.09213Z" fill="#212121"/>
</g>
<defs>
<clipPath id="clip0_104_701">
<rect width="22" height="24" fill="white" transform="translate(0.666687 0.5)"/>
</clipPath>
</defs>
</svg>
